# xmcd
#
# Track frame offsets: 
#        150
#        16793
#        35973
#        58586
#        74730
#        95274
#        110775
#        132487
#        150675
#        167144
#        181902
#        202070
#        222877
#        239675
#        261111
#        280618
#        296259
#        313730
#
# Disc length: 4460 seconds
#
# Revision: 0
# Processed by: cddbd v1.5.2PL0 Copyright (c) Steve Scherf et al.
# Submitted via: ExactAudioCopy v0.99pb4
#
DISCID=17116a12
DTITLE=Gregg Allman - No Stranger To The Dark
DYEAR=2008
DGENRE=blues
TTITLE0=I m No Angel
TTITLE1=Island
TTITLE2=Melissa
TTITLE3=Faces Without Names
TTITLE4=Evidence Of Love
TTITLE5=Demons
TTITLE6=Ocean Awash The Gunwale
TTITLE7=House Of Blues
TTITLE8=Before The Bullets Fly
TTITLE9=The Dark End Of The Street
TTITLE10=Slip Away
TTITLE11=I ve Got News For You
TTITLE12=Brother To Brother
TTITLE13=These Days
TTITLE14=Hopelessly Miss You
TTITLE15=Love The Poison
TTITLE16=Rendezvous With The Blues
TTITLE17=Whippin Post
EXTD=
EXTT0=I m No Angel
EXTT1=
EXTT2=
EXTT3=
EXTT4=
EXTT5=
EXTT6=
EXTT7=
EXTT8=
EXTT9=
EXTT10=
EXTT11=
EXTT12=
EXTT13=
EXTT14=
EXTT15=
EXTT16=
EXTT17=
PLAYORDER=
